<?xml version="1.0" encoding="UTF-8"?>
<svg width="32" height="32" viewBox="0 0 32 32" fill="none" xmlns="http://www.w3.org/2000/svg">
    <rect width="32" height="32" rx="8" fill="#1A1A1A"/>
    <path d="M11 10C11 8.89543 11.8954 8 13 8H19C20.1046 8 21 8.89543 21 10V22C21 23.1046 20.1046 24 19 24H13C11.8954 24 11 23.1046 11 22V10Z" fill="url(#paint0_linear)"/>
    <path d="M14 8V6C14 5.44772 14.4477 5 15 5H17C17.5523 5 18 5.44772 18 6V8" stroke="#00FF94" stroke-width="1.5" stroke-linecap="round"/>
    <rect x="14" y="12" width="4" height="6" rx="1" fill="#1A1A1A"/>
    <rect x="15" y="14" width="2" height="2" rx="0.5" fill="#00FF94"/>
    <defs>
        <linearGradient id="paint0_linear" x1="16" y1="8" x2="16" y2="24" gradientUnits="userSpaceOnUse">
            <stop stop-color="#00FF94"/>
            <stop offset="1" stop-color="#00BD6D"/>
        </linearGradient>
    </defs>
</svg>
